<svg xmlns="http://www.w3.org/2000/svg" width="81" height="7" viewBox="0 0 81 7">
  <defs>
    <style>
      .cls-1 {
        fill: #191919;
        fill-rule: evenodd;
        opacity: 0.2;
      }
    </style>
  </defs>
  <path id="waves_copy_4" data-name="waves copy 4" class="cls-1" d="M70.541,7L65.534,1.837,60.527,7,55.52,1.837,50.514,7,45.507,1.837,40.5,7,35.493,1.837,30.486,7,25.48,1.837,20.473,7,15.466,1.837,10.459,7,5.452,1.837l-4.561,4.7L0,5.62,5.452,0,10.459,5.16,15.466,0,20.473,5.16,25.48,0,30.486,5.16,35.493,0,40.5,5.16,45.507,0,50.514,5.16,55.52,0,60.527,5.16,65.534,0,70.541,5.16,75.547,0,81,5.62l-0.892.919-4.561-4.7Z"/>
</svg>
